<svg width="100" height="100" viewBox="0 0 100 100" fill="none" xmlns="http://www.w3.org/2000/svg">
<path d="M83.1378 15.7147C83.7708 15.3632 84.5456 15.8582 84.4838 16.5799C82.4178 40.6752 79.7369 63.5231 77.8666 86.7888C77.8416 87.1004 77.655 87.3775 77.3775 87.5213C72.0886 90.2597 70.7942 91.6107 60.3311 91.6658C59.9319 91.6679 59.5718 91.3987 59.4609 91.0151C54.74 74.6862 54.635 65.2068 50.2034 55.5962C50.1205 55.4166 49.9481 55.2939 49.7515 55.2729C49.4504 55.2408 49.1763 55.4505 49.1308 55.7501C47.4701 66.6787 46.0235 77.6372 44.5553 88.5931C44.4802 89.1536 43.9129 89.5066 43.3774 89.3255C36.5186 87.0051 29.6956 84.5797 22.8583 82.1968C22.5247 82.0805 22.2898 81.7797 22.2581 81.4276C20.0888 57.3819 17.6989 33.3566 15.5166 9.31171C15.4524 8.60401 16.1948 8.10658 16.8218 8.44055C22.1965 11.3036 26.8024 14.1444 32.414 16.4209C32.7306 16.5493 32.9504 16.8443 32.9792 17.1849C33.951 28.6726 34.78 39.4269 35.6268 50.9329C35.6423 51.1445 35.8798 51.3323 36.0889 51.3677C36.4771 51.4333 36.7617 51.1484 36.8107 50.7575C38.0596 40.7909 39.3429 30.8282 41.0105 20.922C41.1089 20.3375 41.7379 20.0092 42.2742 20.261C46.697 22.3373 48.4403 23.223 56.9535 24.7011C57.3191 24.7646 57.614 25.0449 57.6883 25.4086C59.3719 33.6491 61.4279 43.7753 63.8368 53.6924C63.9017 53.9595 64.1399 54.1481 64.4145 54.1492C64.425 54.1493 64.4355 54.1493 64.446 54.1493C64.765 54.1506 65.0283 53.9004 65.0431 53.5816C65.5038 43.6227 64.3329 34.0254 64.9742 24.0788C64.9976 23.7164 65.2412 23.4045 65.5851 23.2883C72.8712 20.8279 77.0835 19.0762 83.1378 15.7147Z" fill="#BE3830"/>
</svg>
