<?xml version="1.0" encoding="UTF-8" standalone="no"?><!DOCTYPE svg PUBLIC "-//W3C//DTD SVG 1.1//EN" "http://www.w3.org/Graphics/SVG/1.1/DTD/svg11.dtd"><svg width="100%" height="100%" viewBox="0 0 346 346" version="1.1" xmlns="http://www.w3.org/2000/svg" xmlns:xlink="http://www.w3.org/1999/xlink" xml:space="preserve" xmlns:serif="http://www.serif.com/" style="fill-rule:evenodd;clip-rule:evenodd;stroke-linecap:round;stroke-linejoin:round;stroke-miterlimit:1.5;"><rect id="small-version" x="-0" y="0" width="345.6" height="345.6" style="fill:none;"/><g id="small-version1" serif:id="small-version"><path d="M54.246,179.702l65.282,111.956l42.228,-73.86" style="fill:none;stroke:#198ba1;stroke-width:12px;"/><path d="M183.939,216.24l43.224,74.218l64.191,-111.692" style="fill:none;stroke:#198ba1;stroke-width:12px;"/><path d="M159.915,130.069l-41.353,-70.919l-64.316,112.515l65.282,111.957l41.331,-72.304" style="fill:none;stroke:#719aa3;stroke-width:6px;"/><ellipse cx="118.554" cy="170.822" rx="31.2" ry="57.6" style="fill:none;stroke:#719aa3;stroke-width:4px;"/><path d="M134.154,120.938c0,-0 24.022,18.661 36.422,18.684c2.883,0.005 6.478,-0.995 10.299,-2.533" style="fill:none;stroke:#719aa3;stroke-width:4px;"/><path d="M181.337,204.117c-3.368,-1.34 -6.552,-2.191 -9.204,-2.187c-12.4,0.021 -37.979,18.776 -37.979,18.776" style="fill:none;stroke:#719aa3;stroke-width:4px;"/><ellipse cx="224.275" cy="170.826" rx="31.2" ry="57.6" style="fill:none;stroke:#719aa3;stroke-width:4px;"/><path d="M291.354,169.978l-65.282,-111.956l-64.316,112.514l65.282,111.957l64.316,-112.515Z" style="fill:none;stroke:#719aa3;stroke-width:6px;"/></g></svg>