<?xml version="1.0" encoding="UTF-8" standalone="no"?><!DOCTYPE svg PUBLIC "-//W3C//DTD SVG 1.1//EN" "http://www.w3.org/Graphics/SVG/1.1/DTD/svg11.dtd"><svg width="100%" height="100%" viewBox="0 0 346 346" version="1.1" xmlns="http://www.w3.org/2000/svg" xmlns:xlink="http://www.w3.org/1999/xlink" xml:space="preserve" xmlns:serif="http://www.serif.com/" style="fill-rule:evenodd;clip-rule:evenodd;stroke-linecap:round;stroke-linejoin:round;stroke-miterlimit:1.5;"><rect id="Artboard4" x="-0" y="0.054" width="345.6" height="345.6" style="fill:none;"/><g id="Artboard41" serif:id="Artboard4"><path d="M54.246,175.675l65.282,111.957l42.228,-73.86" style="fill:none;stroke:#198ba1;stroke-width:8px;"/><path d="M183.939,213.414l43.224,74.218l64.191,-111.692" style="fill:none;stroke:#198ba1;stroke-width:8px;"/><g><path d="M159.915,130.123l-41.353,-70.919l-64.316,112.515l65.282,111.956l41.331,-72.303" style="fill:none;stroke:#755287;stroke-width:4px;"/><ellipse cx="118.554" cy="170.875" rx="31.2" ry="57.6" style="fill:none;stroke:#755287;stroke-width:2px;"/><path d="M166.166,178.154c-1.915,17.718 -10.69,31.121 -21.212,31.121c-11.921,0 -21.6,-17.206 -21.6,-38.4c0,-21.193 9.679,-38.4 21.6,-38.4c10.402,0 19.097,13.1 21.144,30.518" style="fill:none;stroke:#755287;stroke-width:2px;"/><path d="M200.843,132.87c10.46,2.667 18.511,18.68 18.511,38.01c0,19.33 -8.051,35.343 -18.511,38.01" style="fill:none;stroke:#755287;stroke-width:2px;"/><path d="M177.788,198.086c-2.257,2.54 -4.861,3.989 -7.634,3.989c-8.609,0 -15.6,-13.98 -15.6,-31.2c0,-17.219 6.991,-31.2 15.6,-31.2c2.691,0 5.223,1.366 7.434,3.768" style="fill:none;stroke:#755287;stroke-width:2px;"/><path d="M134.154,120.991c0,0 24.022,18.662 36.422,18.684c2.883,0.006 6.478,-0.994 10.299,-2.532" style="fill:none;stroke:#755287;stroke-width:2px;"/><path d="M181.337,204.171c-3.368,-1.34 -6.552,-2.191 -9.204,-2.187c-12.4,0.021 -37.979,18.775 -37.979,18.775" style="fill:none;stroke:#755287;stroke-width:2px;"/><ellipse cx="224.275" cy="170.88" rx="31.2" ry="57.6" style="fill:none;stroke:#755287;stroke-width:2px;"/><path d="M291.354,170.032l-65.282,-111.957l-64.316,112.515l65.282,111.957l64.316,-112.515Z" style="fill:none;stroke:#755287;stroke-width:4px;"/></g></g></svg>