<svg width="346" height="347" viewBox="0 0 346 347" fill="none" xmlns="http://www.w3.org/2000/svg">
<path d="M121.652 132.357C122.411 131.935 123.341 132.529 123.267 133.395C120.788 162.31 117.571 189.728 115.326 217.647C115.296 218.021 115.072 218.354 114.739 218.526C108.393 221.813 106.839 223.434 94.2832 223.5C93.8042 223.503 93.3721 223.18 93.239 222.719C87.5737 203.124 87.4478 191.749 82.1297 180.216C82.0303 180 81.8234 179.853 81.5875 179.828C81.2261 179.789 80.8972 180.041 80.8426 180.4C78.8497 193.515 77.1138 206.665 75.3519 219.813C75.2617 220.485 74.581 220.909 73.9384 220.692C65.7076 217.907 57.5199 214.997 49.315 212.137C48.9145 211.997 48.6327 211.636 48.5946 211.214C45.9914 182.358 43.1235 153.528 40.5047 124.673C40.4276 123.824 41.3186 123.227 42.0709 123.628C48.5207 127.063 54.0479 130.472 60.782 133.204C61.1619 133.358 61.4257 133.712 61.4603 134.121C62.6264 147.907 63.6212 160.812 64.6374 174.62C64.6561 174.873 64.941 175.099 65.1919 175.141C65.6578 175.22 65.9993 174.878 66.0581 174.409C67.5569 162.449 69.0969 150.493 71.098 138.606C71.2161 137.904 71.9709 137.51 72.6145 137.812C77.922 140.304 80.014 141.367 90.23 143.141C90.6688 143.217 91.0227 143.553 91.1119 143.99C93.1322 153.878 95.5994 166.03 98.4902 177.931C98.568 178.251 98.8538 178.478 99.1835 178.479C99.1961 178.479 99.2087 178.479 99.2213 178.479C99.604 178.481 99.92 178.181 99.9377 177.798C100.491 165.847 99.0855 154.33 99.8551 142.394C99.8831 141.959 100.175 141.585 100.588 141.445C109.332 138.493 114.387 136.391 121.652 132.357Z" fill="#BE3830"/>
<path d="M183.24 218.814C183.361 219.602 182.615 220.244 181.854 220.006C175.469 218.008 169.107 215.939 162.723 213.936C162.345 213.818 162.062 213.501 161.986 213.112C161.282 209.504 160.557 205.9 159.822 202.299C159.731 201.856 159.375 201.515 158.927 201.45C154.439 200.789 149.945 200.367 145.408 200.351C144.909 200.349 144.477 200.696 144.364 201.182C143.699 204.025 142.997 206.858 142.278 209.687C142.18 210.071 141.879 210.37 141.496 210.469C135.381 212.049 129.42 214.203 123.462 216.294C122.69 216.565 121.911 215.909 122.045 215.101C126.848 186.054 132.282 158.873 136.211 129.648C136.275 129.175 136.65 128.796 137.122 128.723C153.167 126.251 157.611 128.07 168.388 133.294C168.705 133.447 168.932 133.749 168.988 134.097C173.527 162.371 178.897 190.507 183.24 218.814ZM155.896 186.915C156.585 186.954 157.137 186.349 157.032 185.667C155.528 175.872 154.109 164.519 152.798 154.815C152.779 154.67 152.652 154.554 152.507 154.567C152.345 154.582 152.208 154.693 152.186 154.855C150.863 164.469 149.117 175.674 147.569 185.358C147.465 186.005 147.957 186.593 148.612 186.611C151.042 186.675 153.469 186.777 155.896 186.915Z" fill="#BE3830"/>
<path d="M234.677 181.729C234.373 182.021 234.252 182.456 234.377 182.859C237.273 192.197 240.239 201.551 244.253 210.476C244.534 211.101 244.177 211.831 243.511 211.991C236.308 213.723 229.235 216 222.149 218.154C221.573 218.329 220.965 217.997 220.803 217.417C218.212 208.178 216.188 198.756 213.766 189.472C213.637 188.977 213.178 188.642 212.667 188.667C212.312 188.685 211.938 188.703 211.608 188.719C211.039 188.747 210.59 189.206 210.58 189.775C210.508 194.085 210.23 211.182 210.214 220.891C210.214 221.374 209.893 221.794 209.426 221.92C202.208 223.869 196.704 223.992 189.47 222.014C189.006 221.887 188.688 221.463 188.688 220.982C188.663 195.166 184.608 168.407 184.57 142.584C184.569 141.919 188.052 141.775 188.713 141.851C208.978 144.169 220.047 122.005 237.118 132.798C248.227 143.699 246.099 170.766 234.677 181.729ZM214.263 175.819C222.806 175.337 223.153 154.672 214.393 156.113C213.478 156.253 211.349 156.354 209.931 156.47C209.395 156.514 208.997 156.965 209.008 157.504C209.116 162.762 210.07 169.558 210.199 174.852C210.214 175.468 210.728 175.96 211.343 175.937C212.338 175.899 213.48 175.86 214.263 175.819Z" fill="#BE3830"/>
<path d="M273.677 192.316C273.081 192.324 272.583 192.805 272.587 193.401C272.635 200.604 273.142 209.847 273.206 217.117C273.212 217.837 272.521 218.353 271.846 218.101C265.644 215.777 261.091 210.785 251.057 211.507C251.057 197.673 250.299 187.939 250.148 173.732C250.063 165.782 250.146 155.588 250.148 147.738C250.148 140.842 248.954 129.55 250.148 129.55C282.872 119.736 305.5 137.824 305.5 161.228C305.5 178.803 299.752 191.96 273.677 192.316ZM273.86 152.206C273.197 152.118 272.66 152.699 272.727 153.364C273.505 161.095 272.661 169.947 272.588 177.136C272.582 177.679 273.003 178.142 273.545 178.183C290.724 179.489 288.786 154.186 273.86 152.206Z" fill="#BE3830"/>
</svg>
